####
#
# OBJ File Generated by Meshlab
#
####
# Object model.obj
#
# Vertices: 8
# Faces: 12
#
####
vn -1.570796 -1.570796 1.570796
v -0.500000 0.000000 0.500000 0.752941 0.752941 0.752941
vn -1.570796 -1.570796 -1.570796
v -0.500000 0.000000 -0.500000 0.752941 0.752941 0.752941
vn 1.570796 -1.570796 -1.570796
v 0.500000 0.000000 -0.500000 0.752941 0.752941 0.752941
vn 1.570796 -1.570796 1.570796
v 0.500000 0.000000 0.500000 0.752941 0.752941 0.752941
vn -1.570796 1.570796 1.570796
v -0.500000 1.000000 0.500000 0.752941 0.752941 0.752941
vn 1.570796 1.570796 1.570796
v 0.500000 1.000000 0.500000 0.752941 0.752941 0.752941
vn 1.570796 1.570796 -1.570796
v 0.500000 1.000000 -0.500000 0.752941 0.752941 0.752941
vn -1.570796 1.570796 -1.570796
v -0.500000 1.000000 -0.500000 0.752941 0.752941 0.752941
# 8 vertices, 0 vertices normals

f 1//1 2//2 3//3
f 3//3 4//4 1//1
f 5//5 6//6 7//7
f 7//7 8//8 5//5
f 1//1 4//4 6//6
f 6//6 5//5 1//1
f 4//4 3//3 7//7
f 7//7 6//6 4//4
f 3//3 2//2 8//8
f 8//8 7//7 3//3
f 2//2 1//1 5//5
f 5//5 8//8 2//2
# 12 faces, 0 coords texture

# End of File
